<svg width="40" height="9" viewBox="0 0 40 9" fill="none" xmlns="http://www.w3.org/2000/svg">
<path d="M3.28125 6.75488L5.3125 0.890625H6.33789L3.70117 8H2.87109L0.239258 0.890625H1.25977L3.28125 6.75488ZM10.1904 8C10.1383 7.89583 10.096 7.71029 10.0635 7.44336C9.64355 7.87956 9.14225 8.09766 8.55957 8.09766C8.03874 8.09766 7.61068 7.95117 7.27539 7.6582C6.94336 7.36198 6.77734 6.98763 6.77734 6.53516C6.77734 5.98503 6.98568 5.55859 7.40234 5.25586C7.82227 4.94987 8.41146 4.79688 9.16992 4.79688H10.0488V4.38184C10.0488 4.06608 9.95443 3.81543 9.76562 3.62988C9.57682 3.44108 9.2985 3.34668 8.93066 3.34668C8.6084 3.34668 8.33822 3.42806 8.12012 3.59082C7.90202 3.75358 7.79297 3.95052 7.79297 4.18164H6.88477C6.88477 3.91797 6.97754 3.66406 7.16309 3.41992C7.35189 3.17253 7.60579 2.97721 7.9248 2.83398C8.24707 2.69076 8.60026 2.61914 8.98438 2.61914C9.5931 2.61914 10.07 2.77214 10.415 3.07812C10.7601 3.38086 10.9391 3.79915 10.9521 4.33301V6.76465C10.9521 7.24967 11.014 7.63542 11.1377 7.92188V8H10.1904ZM8.69141 7.31152C8.97461 7.31152 9.24316 7.23828 9.49707 7.0918C9.75098 6.94531 9.9349 6.75488 10.0488 6.52051V5.43652H9.34082C8.23405 5.43652 7.68066 5.76042 7.68066 6.4082C7.68066 6.69141 7.77507 6.91276 7.96387 7.07227C8.15267 7.23177 8.39518 7.31152 8.69141 7.31152ZM13.3496 8H12.4463V0.5H13.3496V8ZM15.7812 8H14.8779V2.7168H15.7812V8ZM14.8047 1.31543C14.8047 1.16895 14.8486 1.04525 14.9365 0.944336C15.0277 0.843424 15.1611 0.792969 15.3369 0.792969C15.5127 0.792969 15.6462 0.843424 15.7373 0.944336C15.8285 1.04525 15.874 1.16895 15.874 1.31543C15.874 1.46191 15.8285 1.58398 15.7373 1.68164C15.6462 1.7793 15.5127 1.82812 15.3369 1.82812C15.1611 1.82812 15.0277 1.7793 14.9365 1.68164C14.8486 1.58398 14.8047 1.46191 14.8047 1.31543ZM17.0117 5.31445C17.0117 4.50391 17.2038 3.85286 17.5879 3.36133C17.972 2.86654 18.4749 2.61914 19.0967 2.61914C19.7152 2.61914 20.2051 2.83073 20.5664 3.25391V0.5H21.4697V8H20.6396L20.5957 7.43359C20.2344 7.8763 19.7314 8.09766 19.0869 8.09766C18.4749 8.09766 17.9753 7.84701 17.5879 7.3457C17.2038 6.8444 17.0117 6.1901 17.0117 5.38281V5.31445ZM17.915 5.41699C17.915 6.01595 18.0387 6.4847 18.2861 6.82324C18.5335 7.16178 18.8753 7.33105 19.3115 7.33105C19.8844 7.33105 20.3027 7.07389 20.5664 6.55957V4.13281C20.2962 3.63477 19.8812 3.38574 19.3213 3.38574C18.8786 3.38574 18.5335 3.55664 18.2861 3.89844C18.0387 4.24023 17.915 4.74642 17.915 5.41699ZM26.1377 8C26.0856 7.89583 26.0433 7.71029 26.0107 7.44336C25.5908 7.87956 25.0895 8.09766 24.5068 8.09766C23.986 8.09766 23.5579 7.95117 23.2227 7.6582C22.8906 7.36198 22.7246 6.98763 22.7246 6.53516C22.7246 5.98503 22.9329 5.55859 23.3496 5.25586C23.7695 4.94987 24.3587 4.79688 25.1172 4.79688H25.9961V4.38184C25.9961 4.06608 25.9017 3.81543 25.7129 3.62988C25.5241 3.44108 25.2458 3.34668 24.8779 3.34668C24.5557 3.34668 24.2855 3.42806 24.0674 3.59082C23.8493 3.75358 23.7402 3.95052 23.7402 4.18164H22.832C22.832 3.91797 22.9248 3.66406 23.1104 3.41992C23.2992 3.17253 23.5531 2.97721 23.8721 2.83398C24.1943 2.69076 24.5475 2.61914 24.9316 2.61914C25.5404 2.61914 26.0173 2.77214 26.3623 3.07812C26.7074 3.38086 26.8864 3.79915 26.8994 4.33301V6.76465C26.8994 7.24967 26.9613 7.63542 27.085 7.92188V8H26.1377ZM24.6387 7.31152C24.9219 7.31152 25.1904 7.23828 25.4443 7.0918C25.6982 6.94531 25.8822 6.75488 25.9961 6.52051V5.43652H25.2881C24.1813 5.43652 23.6279 5.76042 23.6279 6.4082C23.6279 6.69141 23.7223 6.91276 23.9111 7.07227C24.0999 7.23177 24.3424 7.31152 24.6387 7.31152ZM29.541 1.4375V2.7168H30.5273V3.41504H29.541V6.69141C29.541 6.90299 29.585 7.0625 29.6729 7.16992C29.7607 7.27409 29.9105 7.32617 30.1221 7.32617C30.2262 7.32617 30.3695 7.30664 30.5518 7.26758V8C30.3141 8.0651 30.083 8.09766 29.8584 8.09766C29.4548 8.09766 29.1504 7.97559 28.9453 7.73145C28.7402 7.4873 28.6377 7.14062 28.6377 6.69141V3.41504H27.6758V2.7168H28.6377V1.4375H29.541ZM31.25 5.30957C31.25 4.79199 31.3509 4.3265 31.5527 3.91309C31.7578 3.49967 32.041 3.18066 32.4023 2.95605C32.7669 2.73145 33.182 2.61914 33.6475 2.61914C34.3669 2.61914 34.9479 2.86816 35.3906 3.36621C35.8366 3.86426 36.0596 4.52669 36.0596 5.35352V5.41699C36.0596 5.93132 35.9603 6.39355 35.7617 6.80371C35.5664 7.21061 35.2848 7.52799 34.917 7.75586C34.5524 7.98372 34.1325 8.09766 33.6572 8.09766C32.9411 8.09766 32.36 7.84863 31.9141 7.35059C31.4714 6.85254 31.25 6.19336 31.25 5.37305V5.30957ZM32.1582 5.41699C32.1582 6.00293 32.2933 6.47331 32.5635 6.82812C32.8369 7.18294 33.2015 7.36035 33.6572 7.36035C34.1162 7.36035 34.4808 7.18132 34.751 6.82324C35.0212 6.46191 35.1562 5.95736 35.1562 5.30957C35.1562 4.73014 35.0179 4.26139 34.7412 3.90332C34.4678 3.54199 34.1032 3.36133 33.6475 3.36133C33.2015 3.36133 32.8418 3.53874 32.5684 3.89355C32.2949 4.24837 32.1582 4.75618 32.1582 5.41699ZM39.7461 3.52734C39.6094 3.50456 39.4613 3.49316 39.3018 3.49316C38.7093 3.49316 38.3073 3.74544 38.0957 4.25V8H37.1924V2.7168H38.0713L38.0859 3.32715C38.3822 2.85514 38.8021 2.61914 39.3457 2.61914C39.5215 2.61914 39.6549 2.64193 39.7461 2.6875V3.52734Z" fill="black"/>
</svg>
